<svg width="60" height="75" viewBox="0 0 60 75" fill="none" xmlns="http://www.w3.org/2000/svg">
<path d="M50.1647 39.1379C50.1328 33.0696 52.779 28.4895 58.135 25.1164C55.1382 20.6685 50.6111 18.2214 44.6334 17.7419C38.9745 17.2789 32.7896 21.1646 30.526 21.1646C28.135 21.1646 22.6514 17.9072 18.3475 17.9072C9.45271 18.056 0 25.2652 0 39.9316C0 44.2637 0.765143 48.7391 2.29543 53.3579C4.33581 59.4261 11.7003 74.3075 19.3836 74.0594C23.4006 73.9602 26.238 71.0997 31.4665 71.0997C36.5356 71.0997 39.1658 74.0594 43.6451 74.0594C51.3921 73.9437 58.0553 60.4182 60 54.3334C49.6068 49.2572 50.1647 39.4521 50.1647 39.1379ZM41.1424 11.9877C45.4942 6.63046 45.0956 1.75269 44.9681 0C41.1265 0.231487 36.6791 2.71171 34.1445 5.77065C31.3549 9.04454 29.7131 13.0956 30.0638 17.6592C34.2242 17.9899 38.0181 15.7742 41.1424 11.9877Z" fill="black"/>
</svg>
