<svg width="28" height="22" viewBox="0 0 28 22" fill="none" xmlns="http://www.w3.org/2000/svg">
<path d="M8.02081 9.03571V12.9643C8.02081 13.6152 7.44369 14.1429 6.73175 14.1429H1.28906C0.577124 14.1429 0 13.6152 0 12.9643V9.03571C0 8.3848 0.577124 7.85714 1.28906 7.85714H6.73175C7.44369 7.85714 8.02081 8.3848 8.02081 9.03571ZM0 16.8929V20.8214C0 21.4723 0.577124 22 1.28906 22H6.73175C7.44369 22 8.02081 21.4723 8.02081 20.8214V16.8929C8.02081 16.2419 7.44369 15.7143 6.73175 15.7143H1.28906C0.577124 15.7143 0 16.2419 0 16.8929ZM6.73175 0H1.28906C0.577124 0 0 0.527656 0 1.17857V5.10714C0 5.75806 0.577124 6.28571 1.28906 6.28571H6.73175C7.44369 6.28571 8.02081 5.75806 8.02081 5.10714V1.17857C8.02081 0.527656 7.44369 0 6.73175 0ZM11.0286 22H26.2109C26.9229 22 27.5 21.4723 27.5 20.8214V16.8929C27.5 16.2419 26.9229 15.7143 26.2109 15.7143H11.0286C10.3167 15.7143 9.73956 16.2419 9.73956 16.8929V20.8214C9.73956 21.4723 10.3167 22 11.0286 22ZM9.73956 1.17857V5.10714C9.73956 5.75806 10.3167 6.28571 11.0286 6.28571H26.2109C26.9229 6.28571 27.5 5.75806 27.5 5.10714V1.17857C27.5 0.527656 26.9229 0 26.2109 0H11.0286C10.3167 0 9.73956 0.527656 9.73956 1.17857ZM11.0286 14.1429H26.2109C26.9229 14.1429 27.5 13.6152 27.5 12.9643V9.03571C27.5 8.3848 26.9229 7.85714 26.2109 7.85714H11.0286C10.3167 7.85714 9.73956 8.3848 9.73956 9.03571V12.9643C9.73956 13.6152 10.3167 14.1429 11.0286 14.1429Z" fill="black" fill-opacity="0.7"/>
</svg>
