<svg width="316" height="277" viewBox="0 0 316 277" fill="none" xmlns="http://www.w3.org/2000/svg">
<g clip-path="url(#clip0_18_53)">
<path d="M141.707 272.068C139.347 272.064 137.025 272.947 134.962 274.633H148.435C146.378 272.948 144.062 272.065 141.707 272.068V272.068Z" fill="#E6E6E6"/>
<path d="M167.853 269.502C163.91 269.496 160.063 271.288 156.842 274.633H178.848C175.631 271.292 171.79 269.5 167.853 269.502V269.502Z" fill="#E6E6E6"/>
<path d="M315.955 237.029C314.97 210.757 300.627 189.336 282.791 187.541C274.569 186.69 266.4 190.049 259.667 197.047C252.935 204.045 248.053 214.253 245.848 225.941C245.415 225.919 244.983 225.893 244.546 225.893C236.826 225.895 229.314 229.576 223.134 236.384C216.954 243.193 212.438 252.763 210.262 263.664C205.146 260.356 199.43 259.638 194.008 261.623C188.586 263.608 183.764 268.183 180.298 274.633H291.757C305.451 274.633 316.538 257.941 315.98 237.804C315.973 237.546 315.964 237.288 315.955 237.029Z" fill="#E6E6E6"/>
<path d="M313.06 274.09H0V275.176H313.06V274.09Z" fill="#3F3D56"/>
<path d="M104.48 97.8125C104.48 97.8125 90.2708 91.2985 92.4521 102.016C94.6334 112.733 106.602 107.319 106.602 107.319L104.48 97.8125Z" fill="#FFB8B8"/>
<path d="M158.796 57.5862C158.796 57.5862 151.514 42.941 144.439 58.1446C137.351 73.378 130.76 85.8838 130.76 85.8838L113.154 94.3321L102.969 95.6621L105.775 108.989L135.389 102.667C135.389 102.667 168.36 73.8424 158.796 57.5862Z" fill="#2F2E41"/>
<path d="M126.293 138.691C126.293 138.691 115.231 150.087 115.969 160.398C116.706 170.709 121.5 198.929 121.5 198.929L131.456 196.758C131.456 196.758 132.562 175.051 128.874 166.91L146.574 152.258L126.293 138.691Z" fill="#FFB8B8"/>
<path d="M150.814 165.554C150.814 165.554 150.077 185.633 151.921 193.773C153.764 201.913 155.608 232.304 155.608 232.304H165.933C165.933 232.304 170.726 205.712 164.827 193.773C164.827 193.773 162.983 178.035 168.145 170.438L150.814 165.554Z" fill="#FFB8B8"/>
<path d="M148.418 109.929C148.418 109.929 124.45 132.179 124.45 139.234L143.624 162.569L150.261 151.715L149.524 167.996L170.173 173.965C170.173 173.965 177.548 132.721 177.179 131.093C176.811 129.465 175.704 105.587 175.704 105.587L148.418 109.929Z" fill="#2F2E41"/>
<path d="M131.456 194.045L120.762 197.301L122.662 208.796C123.597 214.454 123.704 220.34 122.975 226.063V226.063C122.975 226.063 134.037 230.404 134.037 228.234C134.037 226.063 131.456 217.38 132.193 211.41C132.931 205.441 131.456 194.045 131.456 194.045Z" fill="#51F1F9"/>
<path d="M136.987 234.746C136.618 232.575 133.554 222.733 133.427 224.398C133.299 226.063 127.399 228.776 125.187 225.52C125.187 225.52 122.237 221.721 121.131 225.52C120.025 229.319 117.812 235.831 117.812 235.831C117.812 235.831 107.856 242.886 109.331 246.685C109.63 247.453 110.456 247.777 111.584 247.806C111.558 247.906 111.544 248.013 111.544 248.121V248.505C111.544 248.742 111.608 248.969 111.721 249.137C111.835 249.304 111.99 249.398 112.151 249.398H112.412C112.573 249.398 112.727 249.304 112.841 249.137C112.955 248.969 113.019 248.742 113.019 248.505V248.121C113.018 247.982 112.995 247.846 112.952 247.723C113.254 247.684 113.567 247.632 113.888 247.57C113.803 247.726 113.757 247.92 113.756 248.121V248.505C113.756 248.742 113.82 248.969 113.934 249.137C114.048 249.304 114.202 249.398 114.363 249.398H114.624C114.785 249.398 114.94 249.304 115.053 249.137C115.167 248.969 115.231 248.742 115.231 248.505V248.121C115.231 247.962 115.202 247.805 115.146 247.669C115.091 247.532 115.012 247.42 114.917 247.343C115.766 247.135 116.652 246.869 117.533 246.575C117.475 246.714 117.444 246.873 117.444 247.035V247.42C117.444 247.657 117.507 247.884 117.621 248.051C117.735 248.219 117.889 248.313 118.05 248.313H118.312C118.473 248.313 118.627 248.219 118.741 248.051C118.855 247.884 118.918 247.657 118.918 247.42V247.035C118.918 246.863 118.884 246.694 118.82 246.549C118.756 246.404 118.665 246.29 118.558 246.22C119.218 245.983 119.866 245.736 120.482 245.491C120.425 245.629 120.394 245.788 120.393 245.95V246.334C120.393 246.571 120.457 246.798 120.571 246.966C120.685 247.133 120.839 247.228 121 247.228H121.262C121.422 247.228 121.577 247.133 121.691 246.966C121.804 246.798 121.868 246.571 121.868 246.334V245.95C121.868 245.76 121.826 245.575 121.75 245.422C121.673 245.27 121.565 245.157 121.442 245.101C123.607 244.204 125.187 243.429 125.187 243.429C125.187 243.429 127.022 242.446 129.243 241.119V241.45C129.243 241.687 129.307 241.914 129.421 242.082C129.535 242.249 129.689 242.343 129.85 242.343H130.111C130.272 242.343 130.427 242.249 130.54 242.082C130.654 241.914 130.718 241.687 130.718 241.45V241.066C130.718 240.93 130.697 240.797 130.656 240.675C130.615 240.554 130.556 240.448 130.483 240.365C130.929 240.089 131.379 239.805 131.824 239.517V239.822C131.824 240.059 131.888 240.286 132.002 240.454C132.116 240.621 132.27 240.715 132.431 240.715H132.692C132.853 240.715 133.008 240.621 133.122 240.454C133.235 240.286 133.299 240.059 133.299 239.822V239.438C133.299 239.294 133.276 239.152 133.23 239.025C133.185 238.898 133.12 238.789 133.04 238.707C133.521 238.376 133.984 238.046 134.411 237.723C134.41 237.752 134.406 237.78 134.406 237.81V238.194C134.406 238.431 134.469 238.658 134.583 238.826C134.697 238.993 134.851 239.087 135.012 239.087H135.274C135.435 239.087 135.589 238.993 135.703 238.826C135.817 238.658 135.88 238.431 135.88 238.194V237.81C135.88 237.604 135.832 237.404 135.744 237.245C135.655 237.085 135.532 236.976 135.395 236.935C136.426 236.053 137.076 235.272 136.987 234.746Z" fill="#2F2E41"/>
<path d="M166.67 229.862L154.989 228.776C154.989 228.776 155.697 246.685 154.281 252.654C152.865 258.624 153.573 260.795 153.573 260.795L163.838 261.88L166.67 229.862Z" fill="#51F1F9"/>
<path d="M166.814 269.442C166.761 267.206 165.159 256.64 164.798 258.229C164.438 259.818 158.283 260.662 156.581 256.798C156.581 256.798 154.234 252.178 152.614 255.554C150.994 258.929 147.907 264.62 147.907 264.62C147.907 264.62 137.17 268.464 138.075 272.632C138.258 273.475 139.02 274.046 140.12 274.42C140.08 274.51 140.051 274.61 140.035 274.715L139.981 275.091C139.947 275.323 139.978 275.565 140.065 275.764C140.153 275.962 140.29 276.102 140.448 276.151L140.703 276.231C140.861 276.281 141.025 276.236 141.16 276.107C141.295 275.978 141.39 275.776 141.423 275.544L141.478 275.168C141.497 275.032 141.494 274.892 141.469 274.758C141.77 274.813 142.083 274.858 142.406 274.896C142.301 275.023 142.228 275.198 142.199 275.394L142.145 275.77C142.111 276.002 142.141 276.244 142.229 276.442C142.317 276.641 142.454 276.781 142.612 276.83L142.867 276.91C143.024 276.96 143.189 276.915 143.324 276.786C143.459 276.657 143.554 276.455 143.587 276.223L143.642 275.847C143.664 275.691 143.657 275.53 143.623 275.379C143.588 275.228 143.527 275.094 143.445 274.99C144.304 275.047 145.208 275.059 146.111 275.042C146.035 275.159 145.983 275.305 145.959 275.464L145.905 275.84C145.871 276.072 145.901 276.314 145.989 276.512C146.077 276.711 146.214 276.851 146.372 276.9L146.627 276.98C146.785 277.03 146.949 276.985 147.084 276.856C147.219 276.727 147.314 276.525 147.347 276.293L147.402 275.917C147.426 275.748 147.417 275.572 147.374 275.411C147.332 275.25 147.259 275.11 147.164 275.009C147.844 274.98 148.512 274.937 149.15 274.886C149.074 275.004 149.021 275.15 148.998 275.308L148.944 275.684C148.91 275.916 148.94 276.157 149.028 276.356C149.115 276.555 149.253 276.694 149.41 276.744L149.666 276.824C149.823 276.873 149.988 276.829 150.123 276.7C150.258 276.571 150.352 276.368 150.386 276.137L150.44 275.76C150.467 275.575 150.453 275.381 150.399 275.208C150.346 275.035 150.256 274.892 150.143 274.8C152.388 274.586 154.043 274.313 154.043 274.313C154.043 274.313 155.977 273.915 158.338 273.299L158.291 273.623C158.257 273.855 158.287 274.096 158.375 274.295C158.463 274.494 158.6 274.633 158.758 274.683L159.013 274.763C159.171 274.812 159.335 274.767 159.47 274.639C159.605 274.51 159.7 274.307 159.733 274.075L159.788 273.699C159.807 273.567 159.805 273.43 159.782 273.299C159.76 273.167 159.717 273.045 159.657 272.942C160.133 272.809 160.613 272.67 161.089 272.524L161.046 272.823C161.012 273.054 161.043 273.296 161.13 273.495C161.218 273.694 161.355 273.833 161.513 273.882L161.768 273.963C161.926 274.012 162.09 273.967 162.225 273.838C162.36 273.709 162.455 273.507 162.488 273.275L162.543 272.899C162.563 272.759 162.56 272.613 162.534 272.475C162.508 272.336 162.459 272.209 162.392 272.104C162.91 271.929 163.41 271.748 163.873 271.563C163.867 271.591 163.86 271.617 163.855 271.646L163.801 272.022C163.767 272.254 163.798 272.496 163.885 272.695C163.973 272.893 164.11 273.033 164.268 273.082L164.523 273.162C164.681 273.212 164.845 273.167 164.98 273.038C165.115 272.909 165.21 272.707 165.243 272.475L165.298 272.099C165.327 271.898 165.308 271.688 165.244 271.504C165.18 271.321 165.075 271.176 164.947 271.094C166.08 270.549 166.827 269.984 166.814 269.442Z" fill="#2F2E41"/>
<path d="M148.418 39.3799C154.323 39.3799 159.111 32.3339 159.111 23.6421C159.111 14.9504 154.323 7.90431 148.418 7.90431C142.512 7.90431 137.724 14.9504 137.724 23.6421C137.724 32.3339 142.512 39.3799 148.418 39.3799Z" fill="#FFB8B8"/>
<path d="M158.005 22.0141C158.005 22.0141 163.905 32.8677 166.855 32.325L153.949 46.9775C153.949 46.9775 152.474 37.7519 150.63 36.6665C148.786 35.5811 158.005 22.0141 158.005 22.0141Z" fill="#FFB8B8"/>
<path d="M181.051 102.602C181.051 102.602 181.05 42.7194 174.225 37.561C167.403 32.4055 162.89 29.463 162.89 29.463C162.79 31.4279 162.41 33.3399 161.777 35.0755C161.143 36.8111 160.268 38.3317 159.21 39.539C156.948 42.109 154.695 44.24 153.436 44.2469L153.396 43.9927L153.242 43.3476L149.524 51.8616C149.524 51.8616 146.205 52.947 145.099 56.2031C144.5 57.9647 147.323 75.698 145.652 91.7488C144.235 105.367 138.262 117.66 138.093 119.154C137.807 121.681 145.066 115.061 148.335 111.967C148.383 112.046 148.418 112.099 148.418 112.099C148.418 112.099 146.574 113.185 150.261 111.557C152.351 110.634 155.268 110.583 157.405 110.712C157.402 111.655 157.417 112.404 157.452 112.913C157.82 118.34 176.257 125.938 178.839 124.31C181.42 122.682 181.051 102.602 181.051 102.602Z" fill="#2F2E41"/>
<path d="M168.145 123.224C168.145 123.224 157.083 137.877 164.458 140.59C171.833 143.304 174.782 125.395 174.782 125.395L168.145 123.224Z" fill="#FFB8B8"/>
<path d="M155.239 161.212C155.239 161.212 160.402 154.157 163.352 157.956C166.301 161.755 168.145 164.468 168.145 164.468C168.145 164.468 159.664 156.871 155.239 161.212Z" fill="#51F1F9"/>
<path d="M156.58 245.626C156.58 245.626 159.49 241.649 161.153 243.791C162.815 245.932 163.854 247.461 163.854 247.461C163.854 247.461 159.074 243.179 156.58 245.626Z" fill="#2F2E41"/>
<path d="M123.982 208.639C123.982 208.639 125.98 203.589 127.994 204.925C130.008 206.261 131.305 207.28 131.305 207.28C131.305 207.28 125.885 205.23 123.982 208.639Z" fill="#2F2E41"/>
<path d="M178.265 45.0069C174.61 34.1934 163.488 40.0911 165.295 51.8722C165.322 52.0479 165.35 52.2252 165.38 52.4043C167.284 63.5565 170.397 74.1844 174.598 83.8799L170.542 110.471L166.117 124.038L175.336 127.295L186.767 86.5933C186.767 86.5933 183.614 60.8305 178.265 45.0069Z" fill="#2F2E41"/>
<path opacity="0.2" d="M172.939 84.6938L165.933 123.767L171.833 105.316L172.939 84.6938Z" fill="black"/>
<path d="M155.133 5.29731C155.133 5.29731 149.222 -3.86127 143.273 1.90645C137.323 7.67418 134.501 13.277 135.084 17.1781C135.667 21.0792 137.394 26.5055 137.394 26.5055C137.394 26.5055 136.321 18.4235 141.247 17.8254C146.174 17.2273 152.98 12.4291 152.98 12.4291L157.584 26.8991C157.584 26.8991 158.235 23.546 160.04 24.5077C161.844 25.4695 160.445 6.37004 155.133 5.29731Z" fill="#2F2E41"/>
<path d="M117.259 212.224C117.259 213.599 117.181 214.971 117.027 216.327V216.333C116.603 219.98 115.623 223.437 114.158 226.445C112.694 229.453 110.785 231.931 108.575 233.694C106.364 235.457 103.911 236.458 101.399 236.621C98.8878 236.785 96.3838 236.106 94.0765 234.637H94.0728C93.3901 234.204 92.7285 233.701 92.0927 233.134C90.1221 231.383 88.4202 229.049 87.0948 226.279C85.7695 223.509 84.8495 220.364 84.3934 217.043C84.1796 215.456 84.0721 213.842 84.0726 212.224C84.0726 211.486 84.0947 210.754 84.139 210.032V210.027C84.5216 203.795 86.5149 198.017 89.7077 193.885C92.9005 189.754 97.0492 187.583 101.298 187.822C105.546 188.061 109.57 190.691 112.539 195.169C115.509 199.647 117.197 205.632 117.255 211.888V211.893C117.259 212.007 117.259 212.11 117.259 212.224Z" fill="#51F1F9"/>
<path d="M104.75 204.068H97.3188L93.6027 194.598L96.1232 188.168L96.2705 188.11C99.4613 186.855 102.831 186.994 105.969 188.509L106.103 188.574L108.466 194.598L104.75 204.068ZM97.7444 202.982H104.325L107.615 194.598L105.606 189.476C102.689 188.115 99.5726 187.985 96.6088 189.101L94.4544 194.598L97.7444 202.982Z" fill="white"/>
<path d="M104.382 223.605H96.95L93.234 214.133L96.95 204.661H104.382L108.098 214.133L104.382 223.605ZM97.3757 222.52H103.956L107.246 214.133L103.956 205.746H97.3757L94.0856 214.133L97.3757 222.52Z" fill="white"/>
<path d="M100.666 237.188C98.3482 237.194 96.0548 236.495 93.9295 235.135L93.5505 234.893L97.3186 225.281H104.75L108.36 234.482L108.001 234.736C105.713 236.358 103.205 237.197 100.666 237.188V237.188ZM94.6049 234.375C96.6323 235.575 98.8036 236.161 100.989 236.098C103.174 236.034 105.327 235.322 107.321 234.005L104.325 226.367H97.7446L94.6049 234.375Z" fill="white"/>
<path d="M116.919 213.836H109.487L105.771 204.366L109.487 194.891H112.871L112.98 195.06C115.915 199.604 117.574 205.612 117.624 211.881V212.038L116.919 213.836ZM109.913 212.751H116.493L116.885 211.752C116.814 205.886 115.271 200.267 112.553 195.976H109.913L106.623 204.366L109.913 212.751Z" fill="white"/>
<path d="M109.385 233.65L105.771 224.445L109.487 214.97H116.918L117.396 216.181L117.39 216.423C116.988 219.879 116.096 223.172 114.772 226.088C113.449 229.004 111.724 231.478 109.709 233.349L109.385 233.65ZM106.623 224.445L109.637 232.124C111.463 230.338 113.025 228.027 114.229 225.33C115.433 222.633 116.253 219.606 116.641 216.43L116.494 216.056H109.913L106.623 224.445Z" fill="white"/>
<path d="M92.2239 233.885L91.902 233.598C89.8883 231.807 88.1492 229.421 86.7945 226.589C85.4398 223.758 84.4991 220.544 84.0319 217.15L84.0045 216.949L84.7816 214.97H92.2135L95.9293 224.445L92.2239 233.885ZM84.7829 217.136C85.2307 220.252 86.0965 223.205 87.3296 225.822C88.5626 228.439 90.1381 230.668 91.9638 232.378L95.0777 224.445L91.7875 216.056H85.2073L84.7829 217.136Z" fill="white"/>
<path d="M92.2133 212.751H84.7818L83.7703 210.178V210.032C84.1344 203.882 86.0385 198.151 89.1129 193.951L89.2191 193.806H92.2135L95.9293 203.281L92.2133 212.751ZM85.2071 211.665H91.7877L95.0777 203.281L91.7875 194.891H89.5101C86.6653 198.842 84.8911 204.178 84.5168 209.909L85.2071 211.665Z" fill="white"/>
</g>
<defs>
<clipPath id="clip0_18_53">
<rect width="316" height="277" fill="white"/>
</clipPath>
</defs>
</svg>
