<svg width="251" height="150" viewBox="0 0 251 150" fill="none" xmlns="http://www.w3.org/2000/svg">
<g clip-path="url(#clip0_45_1369)">
<path d="M192.091 148.304C188.879 145.59 186.928 141.302 187.439 137.128C187.951 132.954 191.12 129.116 195.231 128.23C199.342 127.344 204.028 129.797 205.276 133.813C205.964 126.071 206.755 118.004 210.872 111.411C214.599 105.441 221.054 101.17 228.05 100.406C235.047 99.6414 242.413 102.528 246.776 108.05C251.139 113.572 252.208 121.6 249.152 127.939C246.9 132.61 242.753 136.085 238.407 138.913C224.365 147.973 207.524 151.657 190.982 149.288L192.091 148.304Z" fill="#F2F2F2"/>
<path d="M239.858 102.688C234.085 107.39 228.789 112.648 224.047 118.388C216.625 127.34 210.619 137.376 206.238 148.148C205.918 148.933 207.194 149.275 207.511 148.498C214.678 130.992 226.12 115.563 240.791 103.621C241.449 103.084 240.511 102.156 239.858 102.688Z" fill="white"/>
<path d="M80.7671 147.566C85.1789 143.838 87.8587 137.949 87.156 132.216C86.4532 126.483 82.1003 121.213 76.4541 119.995C70.8079 118.778 64.3715 122.148 62.6566 127.663C61.7127 117.03 60.6252 105.95 54.9716 96.8946C49.8524 88.6949 40.9859 82.8278 31.3766 81.7781C21.7673 80.7285 11.6499 84.6928 5.65697 92.2773C-0.335996 99.8619 -1.80335 110.888 2.39397 119.596C5.48599 126.01 11.1826 130.784 17.1512 134.668C36.1931 147.058 59.8146 152.226 82.2907 148.918" fill="#F2F2F2"/>
<path d="M15.1594 84.9126C23.0883 91.3707 30.3622 98.5937 36.8759 106.477C43.3906 114.352 49.1262 122.841 54.0019 131.823C56.7272 136.862 59.1755 142.046 61.3357 147.352C61.7761 148.431 60.0235 148.901 59.5879 147.834C55.7617 138.48 51.0279 129.523 45.4545 121.093C39.9081 112.693 33.56 104.85 26.4993 97.6762C22.5058 93.6204 18.2923 89.7873 13.8778 86.1942C12.973 85.4574 14.262 84.1819 15.1594 84.9126L15.1594 84.9126Z" fill="white"/>
<path d="M180.096 149.672H74.8358V41.6716C74.8358 18.6938 93.5296 0 116.507 0H138.425C161.402 0 180.096 18.6938 180.096 41.6716V149.672Z" fill="#F2F2F2"/>
<path d="M158.179 149.672H74.8358V41.6716C74.8128 32.867 77.6009 24.285 82.794 17.1749C82.9854 16.914 83.1764 16.6565 83.3733 16.4017C85.8852 13.1072 88.8744 10.2058 92.2423 7.79329C92.4326 7.65486 92.6236 7.51884 92.8174 7.38282C95.6356 5.43259 98.6841 3.83832 101.894 2.63629C102.084 2.56406 102.278 2.49168 102.472 2.42225C105.375 1.3864 108.384 0.676841 111.443 0.306686C111.633 0.280774 111.828 0.260498 112.023 0.240222C115.004 -0.0785786 118.011 -0.0785786 120.993 0.240222C121.187 0.260498 121.382 0.280772 121.574 0.306963C124.633 0.677143 127.641 1.38661 130.543 2.42227C130.737 2.49169 130.931 2.56406 131.122 2.63644C134.292 3.82331 137.304 5.39379 140.093 7.31284C140.286 7.44591 140.48 7.58193 140.671 7.71796C142.559 9.0655 144.332 10.5668 145.973 12.2064C147.288 13.5215 148.514 14.9234 149.642 16.4026C149.838 16.6565 150.029 16.914 150.22 17.1745C155.414 24.2846 158.202 32.8668 158.179 41.6716V149.672Z" fill="#CCCCCC"/>
<path d="M151.402 101.367C153.95 101.367 156.016 99.3014 156.016 96.7531C156.016 94.2047 153.95 92.1389 151.402 92.1389C148.854 92.1389 146.788 94.2047 146.788 96.7531C146.788 99.3014 148.854 101.367 151.402 101.367Z" fill="#51F1F9"/>
<path d="M171.473 146.437H167.938L166.255 132.8L171.474 132.8L171.473 146.437Z" fill="#FFB8B8"/>
<path d="M165.412 145.427H172.231V149.72H161.119C161.119 149.156 161.23 148.598 161.446 148.077C161.662 147.556 161.978 147.083 162.376 146.684C162.775 146.285 163.248 145.969 163.769 145.753C164.29 145.538 164.848 145.427 165.412 145.427Z" fill="#2F2E41"/>
<path d="M189.065 146.437H185.529L183.847 132.8L189.065 132.8L189.065 146.437Z" fill="#FFB8B8"/>
<path d="M183.004 145.427H189.822V149.72H178.711C178.711 149.156 178.822 148.598 179.037 148.077C179.253 147.556 179.569 147.083 179.968 146.684C180.367 146.285 180.84 145.969 181.361 145.753C181.882 145.538 182.44 145.427 183.004 145.427Z" fill="#2F2E41"/>
<path d="M153.737 97.6671C153.483 97.2924 153.314 96.8664 153.242 96.4193C153.17 95.9721 153.197 95.5146 153.321 95.079C153.445 94.6434 153.663 94.2403 153.96 93.8981C154.256 93.5558 154.624 93.2828 155.038 93.0982L167.057 59.9725L172.971 63.1999L159.248 94.8561C159.512 95.5714 159.504 96.3588 159.227 97.069C158.949 97.7791 158.42 98.3628 157.741 98.7093C157.062 99.0558 156.279 99.1411 155.541 98.949C154.803 98.7569 154.161 98.3008 153.737 97.6671Z" fill="#FFB8B8"/>
<path d="M187.259 103.892C186.866 103.666 186.527 103.358 186.266 102.987C186.006 102.617 185.829 102.194 185.75 101.748C185.67 101.302 185.689 100.844 185.806 100.407C185.922 99.969 186.134 99.5622 186.424 99.215L182.701 64.1736L189.431 64.481L190.979 98.9489C191.53 99.4761 191.868 100.187 191.93 100.947C191.992 101.707 191.773 102.463 191.314 103.073C190.856 103.682 190.189 104.102 189.442 104.253C188.695 104.404 187.918 104.275 187.259 103.892Z" fill="#FFB8B8"/>
<path d="M176.522 53.8367C180.434 53.8367 183.605 50.6655 183.605 46.7537C183.605 42.8418 180.434 39.6706 176.522 39.6706C172.61 39.6706 169.439 42.8418 169.439 46.7537C169.439 50.6655 172.61 53.8367 176.522 53.8367Z" fill="#FFB8B8"/>
<path d="M187.213 95.9221H165.859L165.885 95.756C165.924 95.5076 169.691 70.8283 166.912 62.7544C166.633 61.9609 166.658 61.0924 166.981 60.316C167.304 59.5395 167.903 58.9101 168.663 58.5487H168.663C172.634 56.6784 180.258 54.3755 186.692 59.9645C187.639 60.8004 188.379 61.8452 188.852 63.0162C189.326 64.1872 189.52 65.4523 189.42 66.7115L187.213 95.9221Z" fill="#51F1F9"/>
<path d="M169.961 74.4755L160.347 72.5251L164.853 61.8463C165.123 60.812 165.792 59.9268 166.713 59.3851C167.635 58.8433 168.733 58.6891 169.768 58.9562C170.803 59.2234 171.69 59.8902 172.234 60.8103C172.778 61.7304 172.935 62.8287 172.67 63.8642L169.961 74.4755Z" fill="#51F1F9"/>
<path d="M182.274 78.0969L181.696 64.8481C181.257 62.3576 182.683 60.0032 184.876 59.6183C187.069 59.2349 189.211 60.9622 189.651 63.4711L191.823 75.8508L182.274 78.0969Z" fill="#51F1F9"/>
<path d="M186.503 94.336C189.939 107.422 190.314 124.06 189.387 142.208L184.773 141.631L176.41 107.025L171.795 142.208L166.604 141.919C165.054 122.878 163.544 106.53 166.028 95.7779L186.503 94.336Z" fill="#2F2E41"/>
<path d="M181.189 52.2276C179.868 53.6352 177.414 52.8796 177.241 50.9567C177.228 50.8074 177.229 50.6571 177.244 50.508C177.333 49.6563 177.825 48.883 177.707 47.9836C177.681 47.7598 177.597 47.5465 177.465 47.3639C176.412 45.9539 173.941 47.9946 172.947 46.7181C172.337 45.9355 173.054 44.7032 172.586 43.8284C171.969 42.6738 170.141 43.2434 168.995 42.6111C167.719 41.9075 167.795 39.9506 168.635 38.7603C169.659 37.3087 171.454 36.5342 173.227 36.4225C175 36.3109 176.761 36.7901 178.416 37.4352C180.296 38.1681 182.161 39.1809 183.318 40.8345C184.726 42.8455 184.861 45.549 184.157 47.9004C183.729 49.3308 182.268 51.0782 181.189 52.2276Z" fill="#2F2E41"/>
<path d="M242.238 149.857H29.3252C29.2343 149.857 29.1472 149.821 29.083 149.756C29.0188 149.692 28.9828 149.605 28.9828 149.514C28.9828 149.423 29.0188 149.336 29.083 149.271C29.1472 149.207 29.2343 149.171 29.3252 149.17H242.238C242.329 149.171 242.416 149.207 242.48 149.271C242.544 149.336 242.58 149.423 242.58 149.514C242.58 149.605 242.544 149.692 242.48 149.756C242.416 149.821 242.329 149.857 242.238 149.857Z" fill="#3F3D56"/>
<path d="M135.252 118.382H97.7624C97.2686 118.385 96.794 118.191 96.4426 117.844C96.0912 117.498 95.8917 117.026 95.8879 116.532V32.8514C95.8917 32.3577 96.0912 31.8856 96.4426 31.5388C96.794 31.192 97.2686 30.9987 97.7624 31.0013H135.252C135.746 30.9987 136.221 31.192 136.572 31.5388C136.924 31.8856 137.123 32.3577 137.127 32.8514V116.532C137.123 117.026 136.924 117.498 136.572 117.844C136.221 118.191 135.746 118.385 135.252 118.382Z" fill="white"/>
<path d="M137.127 58.0777H95.8879V58.6545H137.127V58.0777Z" fill="#CCCCCC"/>
<path d="M137.271 90.9854H96.0321V91.5621H137.271V90.9854Z" fill="#CCCCCC"/>
<path d="M109.442 31.0014H108.865V118.67H109.442V31.0014Z" fill="#CCCCCC"/>
<path d="M123.861 31.0014H123.284V118.67H123.861V31.0014Z" fill="#CCCCCC"/>
</g>
<defs>
<clipPath id="clip0_45_1369">
<rect width="250.895" height="150" fill="white"/>
</clipPath>
</defs>
</svg>
